===========Visit DUSTorrents.com for more Exclusives==============

Visit DusTorrents.com for more exclusives....

DusTorrents.com a Complete FreeLeech Site!! Registrations are absolutely FREE!!

Register by visiting..... www.dustorrents.com

==============================================

[CENTER][B][FONT=Comic Sans MS][SIZE=5][COLOR="#FF0000"]Singham (2011) 720p 1/2 DvD RiP X264 5.1 AC3 [Team DUS][/COLOR][/SIZE][/FONT][/B]

[img]http://img37.imageshack.us/img37/6045/shilpa.png[/img]

[img]http://www.fullyfreedown.com/wp-content/uploads/2011/06/Singham-2011.jpg[/img][/CENTER]

[CODE]General
[B][FONT=Comic Sans MS][COLOR="#FF0000"]Source                           : DvD 9 @ DUS WaReHoUsE
Ripper                           : I Proud To Be An Indian [Team DUS][/COLOR][/FONT][/B]
Complete name                    : D:\Download\Singham (2011) 720p DvD RiP X264 5.1 AC3 [Team DUS]\Singham (2011) 720p DvD RiP X264 5.1 AC3 [Team DUS].mkv
Format                           : Matroska
Format version                   : Version 2
File size                        : 2.19 GiB
Duration                         : 2h 22mn
Overall bit rate                 : 2 202 Kbps
Encoded date                     : UTC 2011-08-25 02:38:44
Writing application              : mkvmerge v4.4.0 ('Die Wiederkehr') built on Oct 31 2010 21:52:48
Writing library                  : libebml v1.0.0 + libmatroska v1.0.0

Video
ID                               : 1
Format                           : AVC
Format/Info                      : Advanced Video Codec
Format profile                   : High@L3.1
Format settings, CABAC           : Yes
Format settings, ReFrames        : 4 frames
Format settings, GOP             : N=1
Codec ID                         : V_MPEG4/ISO/AVC
Duration                         : 2h 22mn
Bit rate                         : 1 752 Kbps
Width                            : 1 280 pixels
Height                           : 544 pixels
Display aspect ratio             : 2.35:1
Frame rate                       : 23.976 fps
Color space                      : YUV
Chroma subsampling               : 4:2:0
Bit depth                        : 8 bits
Scan type                        : Progressive
Bits/(Pixel*Frame)               : 0.105
Stream size                      : 1.70 GiB (78%)
Writing library                  : x264 core 112 r1867 22bfd31


Audio
ID                               : 2
Format                           : AC-3
Format/Info                      : Audio Coding 3
Mode extension                   : CM (complete main)
Codec ID                         : A_AC3
Duration                         : 2h 22mn
Bit rate mode                    : Constant
Bit rate                         : 448 Kbps
Channel(s)                       : 6 channels
Channel positions                : Front: L C R, Side: L R, LFE
Sampling rate                    : 48.0 KHz
Bit depth                        : 16 bits
Compression mode                 : Lossy
Delay relative to video          : 15ms
Stream size                      : 455 MiB (20%)[/CODE]

[center][img]http://img21.imageshack.us/img21/3431/5vh6rom324kkccccthg.gif[/img]
 
http://img33.imageshack.us/img33/2457/84931748.png 
http://img840.imageshack.us/img840/1079/28500378.png 
http://img59.imageshack.us/img59/1636/71100288.png 
http://img27.imageshack.us/img27/6736/44295305.png 
http://img23.imageshack.us/img23/5580/45503208.png 
http://img832.imageshack.us/img832/8701/16356374.png 
http://img571.imageshack.us/img571/3748/37152249.png


[B][FONT=Comic Sans MS][SIZE=4][COLOR="#FF0000"]Seeding @ 1Gbps. Special Thanks To Jay Bro. [/COLOR][/SIZE][/FONT][/B] :clap:[/center]